<?xml version="1.0" encoding="iso-8859-1"?>
<!-- Uploaded to: SVG Repo, www.svgrepo.com, Generator: SVG Repo Mixer Tools -->
<svg height="800px" width="800px" version="1.1" id="Capa_1" xmlns="http://www.w3.org/2000/svg" xmlns:xlink="http://www.w3.org/1999/xlink" 
	 viewBox="0 0 16.854 16.854" xml:space="preserve">
<g>
	<g>
		<path style="fill:#030104;" d="M11.663,1.462c-1.37,0-2.681,0.545-3.652,1.506C7.696,2.885,7.372,2.842,7.048,2.842
			c-1.148,0-2.225,0.515-2.946,1.393c-0.099-0.009-0.196-0.013-0.29-0.013C1.709,4.222,0,5.933,0,8.035
			c0,1.968,1.475,3.599,3.431,3.792l6.772,0.001c0.008,0.001,0.014,0.004,0.021,0.004h1.017h0.002h0.203l0,0h0.523h0.019
			c2.729-0.171,4.866-2.445,4.866-5.178C16.854,3.792,14.526,1.462,11.663,1.462z M11.933,10.678h-0.479
			c-0.004,0-0.006-0.001-0.008-0.001h-0.203h-0.002h-1.017c-0.002,0-0.002,0-0.002,0H3.518c-1.35-0.148-2.363-1.278-2.363-2.642
			c0-1.466,1.191-2.658,2.657-2.658c0.14,0,0.288,0.014,0.453,0.043l0.368,0.063l0.209-0.309C5.513,4.175,6.816,3.733,7.98,4.169
			L8.355,4.31l0.264-0.302c0.77-0.884,1.878-1.391,3.044-1.391c2.226,0,4.037,1.812,4.037,4.037
			C15.7,8.772,14.047,10.536,11.933,10.678z"/>
		<path style="fill:#030104;" d="M8.448,14.5c0,0.493,0.356,0.892,0.797,0.892s0.797-0.398,0.797-0.892s-0.797-1.288-0.797-1.288
			S8.448,14.007,8.448,14.5z"/>
		<path style="fill:#030104;" d="M10.529,13.401c0,0.355,0.22,0.644,0.49,0.644s0.49-0.288,0.49-0.644c0-0.356-0.49-0.93-0.49-0.93
			S10.529,13.045,10.529,13.401z"/>
	</g>
</g>
</svg>